<?xml version="1.0" encoding="utf-8"?>
<!-- Generator: Adobe Illustrator 24.3.0, SVG Export Plug-In . SVG Version: 6.00 Build 0)  -->
<svg version="1.1" id="Layer_1" xmlns="http://www.w3.org/2000/svg" xmlns:xlink="http://www.w3.org/1999/xlink" x="0px" y="0px"
	 viewBox="0 0 50.5 107.2" style="enable-background:new 0 0 50.5 107.2;" xml:space="preserve">
<style type="text/css">
	.st0{fill-rule:evenodd;clip-rule:evenodd;fill:#F6999D;}
	.st1{fill-rule:evenodd;clip-rule:evenodd;fill:#EECE7B;}
</style>
<g id="Group_1_" transform="translate(413.500000, 55.000000) rotate(90.000000) translate(-413.500000, -55.000000) translate(359.000000, 0.000000)">
	
		<g id="Group" transform="translate(54.470774, 54.907799) rotate(314.000000) translate(-54.470774, -54.907799) translate(16.970774, 15.407799)">
		<path id="Path" class="st0" d="M-230.5,347l24.7,0c0-14.1-11-25.6-24.7-25.8L-230.5,347z"/>
		<path id="Path_1_" class="st0" d="M-255.2,321.2l24.7,0c0-14.1-11-25.6-24.7-25.8L-255.2,321.2z"/>
		<path id="Path_2_" class="st1" d="M-230.5,321.2l-24.7,0c0,14.1,11,25.6,24.7,25.8L-230.5,321.2z"/>
		<path id="Path_3_" class="st1" d="M-255.2,295.4h-24.7c0,14.1,11,25.6,24.7,25.8L-255.2,295.4z"/>
		<path id="Path_4_" class="st0" d="M-279.9,295.4h24.7c0-14.1-11-25.6-24.7-25.8L-279.9,295.4z"/>
	</g>
	
		<g id="Group_2_" transform="translate(54.470774, 54.427548) scale(1, -1) rotate(314.000000) translate(-54.470774, -54.427548) translate(16.970774, 14.927548)">
		<path id="Path_5_" class="st0" d="M328.6-192.9l24.7,0c0-14.1-11-25.6-24.7-25.8V-192.9z"/>
		<path id="Path_6_" class="st0" d="M303.9-218.7l24.7,0c0-14.1-11-25.6-24.7-25.8L303.9-218.7z"/>
		<path id="Path_7_" class="st1" d="M328.6-218.7l-24.7,0c0,14.1,11,25.6,24.7,25.8V-218.7z"/>
		<path id="Path_8_" class="st1" d="M303.9-244.5h-24.7c0,14.1,11,25.6,24.7,25.8L303.9-244.5z"/>
		<path id="Path_9_" class="st0" d="M279.2-244.5h24.7c0-14.1-11-25.6-24.7-25.8V-244.5z"/>
	</g>
</g>
</svg>
