<?xml version="1.0" encoding="utf-8"?>
<!-- Generator: Adobe Illustrator 24.3.0, SVG Export Plug-In . SVG Version: 6.00 Build 0)  -->
<svg version="1.1" id="Layer_1" xmlns="http://www.w3.org/2000/svg" xmlns:xlink="http://www.w3.org/1999/xlink" x="0px" y="0px"
	 viewBox="0 0 19.2 17.9" style="enable-background:new 0 0 19.2 17.9;" xml:space="preserve">
<style type="text/css">
	.st0{fill-rule:evenodd;clip-rule:evenodd;fill:#F6999D;}
</style>
<path id="Path" class="st0" d="M15.1,17.9c-0.1,0-0.3,0-0.4-0.1l-5.1-3.7l-5.1,3.7c-0.2,0.2-0.5,0.2-0.8,0c-0.2-0.2-0.3-0.5-0.2-0.7
	l2-5.9L0.3,7.6C0,7.4-0.1,7.1,0,6.9s0.3-0.5,0.6-0.5h6.4l1.9-6C9.1,0.2,9.3,0,9.6,0c0.3,0,0.5,0.2,0.6,0.4l1.9,6h6.4
	c0.3,0,0.5,0.2,0.6,0.5c0.1,0.3,0,0.6-0.2,0.7l-5.2,3.6l2,5.9c0.1,0.2,0,0.4-0.1,0.6C15.5,17.8,15.3,17.9,15.1,17.9z"/>
</svg>
