<?xml version="1.0" encoding="utf-8"?>
<!-- Generator: Adobe Illustrator 24.3.0, SVG Export Plug-In . SVG Version: 6.00 Build 0)  -->
<svg version="1.1" id="Layer_1" xmlns="http://www.w3.org/2000/svg" xmlns:xlink="http://www.w3.org/1999/xlink" x="0px" y="0px"
	 viewBox="0 0 135.6 69" style="enable-background:new 0 0 135.6 69;" xml:space="preserve">
<style type="text/css">
	.st0{fill-rule:evenodd;clip-rule:evenodd;fill:#EECE7B;}
	.st1{fill-rule:evenodd;clip-rule:evenodd;fill:#D0BFDE;}
	.st2{fill-rule:evenodd;clip-rule:evenodd;fill:#D7E7AA;}
	.st3{fill-rule:evenodd;clip-rule:evenodd;fill:#F6999D;}
	.st4{fill-rule:evenodd;clip-rule:evenodd;fill:#86C9C4;}
	.st5{fill-rule:evenodd;clip-rule:evenodd;fill:#D0C1F5;}
</style>
<g id="Group">
	<path id="Path" class="st0" d="M16.9,17.2H0c0,9.4,7.6,17.1,16.9,17.2V17.2z"/>
	<path id="Path_1_" class="st1" d="M50.8,17.2h16.9c0,9.4-7.6,17.1-16.9,17.2C50.8,34.5,50.8,17.2,50.8,17.2z"/>
	<path id="Path_2_" class="st2" d="M16.9,17.2H0C0,7.8,7.6,0.2,16.9,0V17.2z"/>
	<path id="Path_3_" class="st3" d="M16.9,17.2h16.9c0-9.4-7.6-17.1-16.9-17.2V17.2z"/>
	<path id="Path_4_" class="st2" d="M50.8,17.2H33.9c0-9.4,7.6-17.1,16.9-17.2V17.2z"/>
	<path id="Path_5_" class="st1" d="M50.8,17.2h16.9c0-9.4-7.6-17.1-16.9-17.2V17.2z"/>
	<path id="Path_6_" class="st0" d="M33.9,17.2h-17c0,9.4,7.6,17.1,16.9,17.2V17.2H33.9z"/>
	<path id="Path_7_" class="st2" d="M84.6,17.2H67.7c0-9.4,7.6-17.1,16.9-17.2V17.2z"/>
	<path id="Path_8_" class="st3" d="M84.6,17.2h16.9C101.6,7.8,94,0.2,84.6,0V17.2z"/>
	<path id="Path_9_" class="st4" d="M84.6,17.2h16.9c0,9.4-7.6,17.1-16.9,17.2V17.2z"/>
	<path id="Path_10_" class="st0" d="M84.6,51.8H67.7c0,9.4,7.6,17.1,16.9,17.2V51.8z"/>
	<path id="Path_11_" class="st4" d="M84.6,51.8h16.9c0,9.4-7.6,17.1-16.9,17.2V51.8z"/>
	<path id="Path_12_" class="st3" d="M84.6,51.8h16.9c0-9.4-7.6-17.1-16.9-17.2V51.8z"/>
	<path id="Path_13_" class="st4" d="M16.9,51.8h16.9c0,9.4-7.6,17.1-16.9,17.2V51.8z"/>
	<path id="Path_14_" class="st0" d="M16.9,51.8H0c0,9.4,7.6,17,16.9,17.2V51.8z"/>
	<path id="Path_15_" class="st2" d="M16.9,51.8H0c0-9.4,7.6-17.1,16.9-17.2V51.8z"/>
	<path id="Path_16_" class="st2" d="M118.7,17.2h-16.9c0-9.4,7.6-17.1,16.9-17.2V17.2z"/>
	<path id="Path_17_" class="st4" d="M118.7,0h16.9c0,9.4-7.6,17.1-16.9,17.2V0z"/>
	<path id="Path_18_" class="st3" d="M118.6,69h16.9c0-9.4-7.6-17.1-16.9-17.3V69z"/>
	<path id="Path_19_" class="st0" d="M118.6,51.8h-16.9c0,9.4,7.6,17.1,16.9,17.2V51.8z"/>
	<path id="Path_20_" class="st0" d="M50.8,51.8H33.9c0,9.4,7.6,17.1,16.9,17.2V51.8z"/>
	<path id="Path_21_" class="st4" d="M50.8,51.8h16.9c0,9.4-7.6,17.1-16.9,17.2V51.8z"/>
	<path id="Path_22_" class="st3" d="M50.8,51.8h16.9c0-9.4-7.6-17.1-16.9-17.2C50.8,34.5,50.8,51.8,50.8,51.8z"/>
	<path id="Path_23_" class="st3" d="M50.8,17.2h16.9c0-9.4-7.6-17.1-16.9-17.2V17.2z"/>
	<path id="Path_24_" class="st4" d="M50.8,17.2h16.9c0,9.4-7.6,17.1-16.9,17.2C50.8,34.5,50.8,17.2,50.8,17.2z"/>
	<path id="Path_25_" class="st4" d="M33.9,17.2h16.9c0,9.4-7.6,17.1-16.9,17.2C33.9,34.5,33.9,17.2,33.9,17.2z"/>
	<rect id="Rectangle" x="67.7" y="17.2" class="st5" width="16.9" height="34.5"/>
	<rect id="Rectangle_1_" x="101.8" y="17.2" class="st5" width="16.9" height="34.5"/>
</g>
</svg>
