<?xml version="1.0" encoding="utf-8"?>
<!-- Generator: Adobe Illustrator 24.3.0, SVG Export Plug-In . SVG Version: 6.00 Build 0)  -->
<svg version="1.1" id="Layer_1" xmlns="http://www.w3.org/2000/svg" xmlns:xlink="http://www.w3.org/1999/xlink" x="0px" y="0px"
	 viewBox="0 0 120.7 63.1" style="enable-background:new 0 0 120.7 63.1;" xml:space="preserve">
<style type="text/css">
	.st0{fill:none;stroke:#2A2B44;stroke-width:3;}
</style>
<path id="Shape" class="st0" d="M16.2,16.5H1.5c0,8.2,6.6,14.9,14.7,15V16.5z M45.6,16.5h14.7c0,8.2-6.6,14.9-14.7,15V16.5z
	 M16.2,16.5H1.5c0-8.2,6.6-14.8,14.7-15V16.5z M16.2,16.5h14.7c0-8.2-6.6-14.9-14.7-15V16.5z M45.6,16.5H30.9
	c0-8.2,6.6-14.9,14.7-15V16.5z M45.6,16.5h14.7c0-8.2-6.6-14.9-14.7-15V16.5z M30.9,16.5H16.1c0,8.2,6.6,14.9,14.7,15L30.9,16.5
	L30.9,16.5z M74.9,16.5H60.2c0-8.2,6.6-14.9,14.7-15V16.5z M74.9,16.5h14.7c0.1-8.2-6.5-14.8-14.7-15V16.5z M74.9,16.5h14.7
	c0,8.2-6.6,14.9-14.7,15V16.5z M74.9,46.6H60.2c0,8.2,6.6,14.9,14.7,15V46.6z M74.9,46.6h14.7c0,8.2-6.6,14.9-14.7,15V46.6z
	 M74.9,46.6h14.7c0-8.2-6.6-14.9-14.7-15V46.6z M16.2,46.6h14.7c0,8.2-6.6,14.9-14.7,15V46.6z M16.2,46.6H1.5
	c0,8.2,6.6,14.8,14.7,15V46.6z M16.2,46.6H1.5c0-8.2,6.6-14.9,14.7-15V46.6z M104.5,16.5H89.8c0-8.2,6.6-14.9,14.7-15V16.5z
	 M104.5,1.5h14.7c0,8.2-6.6,14.9-14.7,15V1.5z M104.5,61.5h14.7c0-8.2-6.6-14.9-14.7-15V61.5z M104.5,46.6H89.8
	c0,8.2,6.6,14.9,14.7,15V46.6z M45.6,46.6H30.9c0,8.2,6.6,14.9,14.7,15V46.6z M45.6,46.6h14.7c0,8.2-6.6,14.9-14.7,15V46.6z
	 M45.6,46.6h14.7c0-8.2-6.6-14.9-14.7-15C45.6,31.5,45.6,46.6,45.6,46.6z M45.6,16.5h14.7c0-8.2-6.6-14.9-14.7-15V16.5z M45.6,16.5
	h14.7c0,8.2-6.6,14.9-14.7,15V16.5z M30.9,16.5h14.7c0,8.2-6.6,14.9-14.7,15V16.5z M60.3,16.5H75v30H60.3V16.5z M89.9,16.5h14.7v30
	H89.9V16.5z"/>
</svg>
